<?xml version="1.0" encoding="utf-8"?>
<svg xmlns="http://www.w3.org/2000/svg" width="22" height="22">
    <path  fill-rule="evenodd" fill="#808080" d="M22,11.75 L22,10.25 L19.5,9.49 L19.11,8.06 L20.9,6.15 L20.15,4.85 L17.61,5.45 L16.55,4.39 L17.15,1.85 L15.85,1.1 L13.94,2.89 L12.51,2.5 L11.75,0 L10.25,0 L9.49,2.5 L8.06,2.89 L6.15,1.1 L4.85,1.85 L5.45,4.39 L4.39,5.45 L1.85,4.85 L1.1,6.15 L2.89,8.06 L2.5,9.49 L0,10.25 L0,11.75 L2.5,12.51 L2.89,13.94 L1.1,15.85 L1.85,17.15 L4.39,16.55 L5.45,17.61 L4.85,20.15 L6.15,20.9 L8.06,19.11 L9.49,19.5 L10.25,22 L11.75,22 L12.51,19.5 L13.94,19.11 L15.85,20.9 L17.15,20.15 L16.55,17.61 L17.61,16.55 L20.15,17.15 L20.9,15.85 L19.11,13.94 L19.5,12.51 z M5.8,11 a5.2,5.2 0 1 0 10.4,0 a5.2,5.2 0 1 0-10.4,0"/>
</svg>
