<?xml version="1.0" encoding="UTF-8"?>
<svg width="30" height="30" xmlns="http://www.w3.org/2000/svg">
  <path d="M15 9.01c1.017 0 1.845.83 1.845 1.846S16.017 12.7 15 12.7c-1.016 0-1.845-.828-1.845-1.844 0-1.017.83-1.845 1.845-1.845zm0 6.3c2.458 0 4.456-1.998 4.456-4.454C19.456 8.4 17.458 6.4 15 6.4c-2.457 0-4.455 2-4.455 4.456 0 2.456 1.998 4.454 4.455 4.454zm1.803 3.634c.907-.206 1.78-.565 2.587-1.07.61-.386.793-1.19.41-1.8-.385-.612-1.19-.796-1.8-.412-1.826 1.148-4.175 1.148-6 0-.61-.384-1.416-.2-1.8.41-.383.61-.2 1.416.41 1.8.805.506 1.68.866 2.587 1.072l-2.49 2.49c-.51.51-.51 1.337 0 1.847.255.256.588.383.922.383.333 0 .667-.127.923-.382L15 20.835l2.448 2.447c.51.51 1.336.51 1.846 0s.51-1.335 0-1.845l-2.49-2.49z" fill-rule="nonzero" fill="#FFF"/>
</svg>
