<?xml version="1.0" encoding="UTF-8"?>
<svg width="16" height="56" xmlns="http://www.w3.org/2000/svg" xmlns:xlink="http://www.w3.org/1999/xlink">
    <defs>
        <path id="heart" d="M11.414 1.5c2.253 0 4.086 1.833 4.086 4.086 0 1.973-1.316 3.992-3.547 5.927-.808.7-1.683 1.343-2.567 1.913-.553.357-1.004.62-1.296.775-.027.016-.058.024-.09.024-.032 0-.063-.008-.09-.023-.288-.152-.743-.417-1.296-.774-.884-.57-1.76-1.212-2.567-1.913C1.817 9.578.5 7.56.5 5.586.5 3.333 2.333 1.5 4.586 1.5c1.164 0 2.27.497 3.042 1.358L8 3.273l.372-.415c.773-.86 1.878-1.358 3.042-1.358z"/>
    </defs>
    <g stroke-width="1">
        <use xlink:href="#heart" x="0" y="0" stroke="#808080" fill="none"/>
        <use xlink:href="#heart" x="0" y="20" stroke="#F83163" fill="none"/>
        <use xlink:href="#heart" x="0" y="40" stroke="#F83163" fill="#F83163"/>
    </g>
</svg>
