<?xml version="1.0" encoding="UTF-8" standalone="no"?>
<svg xmlns="http://www.w3.org/2000/svg" width="350" height="240" viewBox="0 0 35 24">
    <path d="M 10 18 C 12 16 12.5 13 12.5 9.25 C 12.5 3 22.5 3 22.5 9.25 C 22.5 13 23 16 25 18 z" fill="none" stroke="#737373" stroke-width="2" stroke-linejoin="round"/>
    <g fill="#737373">
        <path d="M 14.337 20 A 3.5 2.5 0 0 0 20.663 20 z"/>
        <circle cx="17.5" cy="3.5" r="1.5"/>
    </g>
    <g stroke="#737373" fill="none">
        <path d="M 28.626 6.8 a 12.5 12.5 0 0 1 0 11.4 M6.374 6.8 a 12.5 12.5 0 0 0 0 11.4"/>
        <path d="M 32.186 4.98 a 16.5 16.5 0 0 1 0 15.04 M2.814 4.98 a 16.5 16.5 0 0 0 0 15.04"/>
    </g>
</svg>
